<svg xmlns="http://www.w3.org/2000/svg" viewBox="0 0 32 40" x="0px" y="0px"><title>23-back home</title><g data-name="23-back home"><path d="M29,32H3a3,3,0,0,1-3-3V9a1,1,0,0,1,.53-.88l15-8a1,1,0,0,1,.94,0l15,8A1,1,0,0,1,32,9v8a3,3,0,0,1-3,3H13a1,1,0,0,1-.71-1.71l5-5a1,1,0,0,1,1.41,1.41L15.41,18H29a1,1,0,0,0,1-1V9.6L16,2.13,2,9.6V29a1,1,0,0,0,1,1H29a1,1,0,0,0,1-1V23a1,1,0,0,1,2,0v6A3,3,0,0,1,29,32Z"/><path d="M18,25a1,1,0,0,1-.71-.29l-5-5a1,1,0,0,1,1.41-1.41l5,5A1,1,0,0,1,18,25Z"/></g><text x="0" y="47" fill="#000000" font-size="5px" font-weight="bold" font-family="'Helvetica Neue', Helvetica, Arial-Unicode, Arial, Sans-serif">Created by libertetstudio</text><text x="0" y="52" fill="#000000" font-size="5px" font-weight="bold" font-family="'Helvetica Neue', Helvetica, Arial-Unicode, Arial, Sans-serif">from the Noun Project</text></svg>