<svg id="Flat" height="512" viewBox="0 0 128 128" width="512" xmlns="http://www.w3.org/2000/svg"><path d="m36.006 96.969h14.149a0 0 0 0 1 0 0v20.96a2.535 2.535 0 0 1 -2.535 2.535h-9.079a2.535 2.535 0 0 1 -2.535-2.535v-20.96a0 0 0 0 1 0 0z" fill="#754845"/><path d="m41.36 8.4a2.138 2.138 0 0 1 3.442 0l13.372 18.141a1.684 1.684 0 0 1 -1.236 2.791h-2.978a.518.518 0 0 0 -.429.81l14.711 21.587a2.291 2.291 0 0 1 -1.786 3.622h-3.441a.518.518 0 0 0 -.419.823l15.7 21.574a2.292 2.292 0 0 1 -1.786 3.622h-4.61a.518.518 0 0 0 -.452.771l12.092 21.626a2.291 2.291 0 0 1 -1.786 3.622h-77.342a2.292 2.292 0 0 1 -1.787-3.622l12.093-21.626a.518.518 0 0 0 -.452-.771h-4.612a2.291 2.291 0 0 1 -1.786-3.622l15.7-21.574a.518.518 0 0 0 -.419-.823h-3.449a2.292 2.292 0 0 1 -1.786-3.622l14.716-21.587a.518.518 0 0 0 -.428-.81h-2.979a1.684 1.684 0 0 1 -1.236-2.791z" fill="#4d9e76"/><path d="m88.667 98.844h10.956a0 0 0 0 1 0 0v19.48a2.14 2.14 0 0 1 -2.14 2.14h-6.676a2.14 2.14 0 0 1 -2.14-2.14v-19.48a0 0 0 0 1 0 0z" fill="#754845"/><path d="m92.812 30.745a1.657 1.657 0 0 1 2.666 0l10.354 14.044a1.3 1.3 0 0 1 -.957 2.161h-2.306a.4.4 0 0 0 -.332.627l11.391 16.714a1.775 1.775 0 0 1 -1.383 2.805h-2.665a.4.4 0 0 0 -.324.638l12.155 16.7a1.775 1.775 0 0 1 -1.384 2.8h-3.57a.4.4 0 0 0 -.351.6l9.364 16.744a1.775 1.775 0 0 1 -1.384 2.8h-59.886a1.775 1.775 0 0 1 -1.384-2.8l9.368-16.738a.4.4 0 0 0 -.351-.6h-3.57a1.775 1.775 0 0 1 -1.384-2.8l12.155-16.7a.4.4 0 0 0 -.324-.638h-2.665a1.775 1.775 0 0 1 -1.383-2.805l11.391-16.72a.4.4 0 0 0 -.332-.627h-2.306a1.3 1.3 0 0 1 -.957-2.161z" fill="#55b78b"/></svg>