<svg enable-background="new 0 0 64 64" height="512" viewBox="0 0 64 64" width="512" xmlns="http://www.w3.org/2000/svg"><g id="Layer_37"><path d="m29.6 28h-10.7l-8.3-18h38.7l-4.2 9c-.4 0-.8 0-1.2 0-6.2 0-11.7 3.7-14.3 9zm-1.6 7c0-1 .1-2 .3-3h-8.3v22c0 .8.4 1.5 1.1 1.8.3.1.6.2.9.2.4 0 .8-.1 1.2-.4l10.8-8.1c-3.7-2.9-6-7.5-6-12.5zm26-31h-48v4h48zm-8 44.8v11.2h-4v-11.2c-6.8-1-12-6.8-12-13.8 0-7.7 6.3-14 14-14s14 6.3 14 14c0 7-5.2 12.9-12 13.8zm8-13.8c0-5.5-4.5-10-10-10s-10 4.5-10 10 4.5 10 10 10 10-4.5 10-10z"/></g></svg>